<svg width="14" height="15" viewBox="0 0 14 15" fill="none" xmlns="http://www.w3.org/2000/svg">
<g clip-path="url(#clip0_0_404)">
<path fill-rule="evenodd" clip-rule="evenodd" d="M6.64187 0.821032C6.85252 0.656539 7.14749 0.656539 7.35814 0.821032L12.6081 4.9207C12.7502 5.03166 12.8333 5.20226 12.8333 5.383V11.8253C12.8333 12.2913 12.649 12.7382 12.3208 13.0677C11.9926 13.3972 11.5475 13.5823 11.0833 13.5823H2.91667C2.45254 13.5823 2.00742 13.3972 1.67923 13.0677C1.35105 12.7382 1.16667 12.2913 1.16667 11.8253V5.383C1.16667 5.20226 1.24978 5.03166 1.39187 4.9207L6.64187 0.821032ZM2.33334 5.66944V11.8253C2.33334 11.9807 2.3948 12.1296 2.50419 12.2395C2.61359 12.3493 2.76196 12.411 2.91667 12.411H11.0833C11.238 12.411 11.3864 12.3493 11.4958 12.2395C11.6052 12.1296 11.6667 11.9807 11.6667 11.8253V5.66944L7.00001 2.02529L2.33334 5.66944Z" fill="white"/>
<path fill-rule="evenodd" clip-rule="evenodd" d="M4.66667 7.14C4.66667 6.81654 4.92784 6.55433 5.25001 6.55433H8.75001C9.07217 6.55433 9.33334 6.81654 9.33334 7.14V12.9967C9.33334 13.3201 9.07217 13.5823 8.75001 13.5823C8.42784 13.5823 8.16667 13.3201 8.16667 12.9967V7.72566H5.83334V12.9967C5.83334 13.3201 5.57217 13.5823 5.25001 13.5823C4.92784 13.5823 4.66667 13.3201 4.66667 12.9967V7.14Z" fill="white"/>
</g>
<defs>
<clipPath id="clip0_0_404">
<rect width="14" height="14.056" fill="white" transform="translate(0 0.112)"/>
</clipPath>
</defs>
</svg>
