<svg width="14" height="15" viewBox="0 0 14 15" fill="none" xmlns="http://www.w3.org/2000/svg">
<g clip-path="url(#clip0_0_407)">
<path fill-rule="evenodd" clip-rule="evenodd" d="M7.00001 2.07932C5.76233 2.07932 4.57534 2.57295 3.70017 3.45162C2.825 4.3303 2.33334 5.52203 2.33334 6.76466C2.33334 8.57909 3.50919 10.3397 4.79848 11.7061C5.4312 12.3766 6.0659 12.9256 6.54307 13.307C6.72066 13.449 6.87577 13.5673 7 13.6595C7.12424 13.5673 7.27936 13.449 7.45694 13.307C7.93412 12.9256 8.56882 12.3766 9.20153 11.7061C10.4908 10.3397 11.6667 8.57909 11.6667 6.76466C11.6667 5.52203 11.175 4.3303 10.2998 3.45162C9.42467 2.57295 8.23768 2.07932 7.00001 2.07932ZM7.00001 14.3783C6.67643 14.8656 6.67628 14.8655 6.67611 14.8654L6.67445 14.8643L6.67056 14.8617L6.65719 14.8526C6.64583 14.8449 6.62963 14.8337 6.60891 14.8193C6.56748 14.7905 6.50794 14.7485 6.43288 14.6941C6.28282 14.5853 6.07038 14.4265 5.81632 14.2234C5.30912 13.8179 4.63132 13.2321 3.95153 12.5117C2.61583 11.0961 1.16667 9.04989 1.16667 6.76466C1.16667 5.21137 1.78125 3.72171 2.87522 2.62337C3.96918 1.52503 5.45291 0.90799 7.00001 0.90799C8.5471 0.90799 10.0308 1.52503 11.1248 2.62337C12.2188 3.72171 12.8333 5.21137 12.8333 6.76466C12.8333 9.04989 11.3842 11.0961 10.0485 12.5117C9.3687 13.2321 8.6909 13.8179 8.18369 14.2234C7.92963 14.4265 7.71719 14.5853 7.56713 14.6941C7.49207 14.7485 7.43253 14.7905 7.3911 14.8193C7.37038 14.8337 7.35418 14.8449 7.34282 14.8526L7.32945 14.8617L7.32556 14.8643L7.32433 14.8651C7.32416 14.8652 7.32358 14.8656 7.00001 14.3783ZM7.00001 14.3783L7.32358 14.8656C7.12764 14.9968 6.87206 14.9966 6.67611 14.8654L7.00001 14.3783Z" fill="white"/>
<path fill-rule="evenodd" clip-rule="evenodd" d="M7.00001 5.59333C6.35567 5.59333 5.83334 6.11775 5.83334 6.76466C5.83334 7.41157 6.35567 7.936 7.00001 7.936C7.64434 7.936 8.16667 7.41157 8.16667 6.76466C8.16667 6.11775 7.64434 5.59333 7.00001 5.59333ZM4.66667 6.76466C4.66667 5.47084 5.71134 4.422 7.00001 4.422C8.28867 4.422 9.33334 5.47084 9.33334 6.76466C9.33334 8.05848 8.28867 9.10733 7.00001 9.10733C5.71134 9.10733 4.66667 8.05848 4.66667 6.76466Z" fill="white"/>
</g>
<defs>
<clipPath id="clip0_0_407">
<rect width="14" height="14.056" fill="white" transform="translate(0 0.90799)"/>
</clipPath>
</defs>
</svg>
