<svg width="14" height="15" viewBox="0 0 14 15" fill="none" xmlns="http://www.w3.org/2000/svg">
<path fill-rule="evenodd" clip-rule="evenodd" d="M2.60427 9.06902C3.15125 8.51985 3.89312 8.21133 4.66667 8.21133H9.33333C10.1069 8.21133 10.8487 8.51985 11.3957 9.06902C11.9427 9.61819 12.25 10.363 12.25 11.1397V12.311C12.25 12.6345 11.9888 12.8967 11.6667 12.8967C11.3445 12.8967 11.0833 12.6345 11.0833 12.311V11.1397C11.0833 10.6737 10.899 10.2268 10.5708 9.89728C10.2426 9.56778 9.79746 9.38267 9.33333 9.38267H4.66667C4.20254 9.38267 3.75742 9.56778 3.42923 9.89728C3.10104 10.2268 2.91667 10.6737 2.91667 11.1397V12.311C2.91667 12.6345 2.6555 12.8967 2.33333 12.8967C2.01117 12.8967 1.75 12.6345 1.75 12.311V11.1397C1.75 10.363 2.05729 9.61819 2.60427 9.06902Z" fill="white"/>
<path fill-rule="evenodd" clip-rule="evenodd" d="M6.99999 2.35465C6.0335 2.35465 5.24999 3.14129 5.24999 4.11165C5.24999 5.08202 6.0335 5.86865 6.99999 5.86865C7.96649 5.86865 8.74999 5.08202 8.74999 4.11165C8.74999 3.14129 7.96649 2.35465 6.99999 2.35465ZM4.08333 4.11165C4.08333 2.49438 5.38916 1.18332 6.99999 1.18332C8.61083 1.18332 9.91666 2.49438 9.91666 4.11165C9.91666 5.72893 8.61083 7.03999 6.99999 7.03999C5.38916 7.03999 4.08333 5.72893 4.08333 4.11165Z" fill="white"/>
</svg>
